<svg xmlns="http://www.w3.org/2000/svg" viewBox="0 0 128 128" role="img" aria-label="CD">
  <defs>
    <linearGradient id="g" x1="20%" y1="0%" x2="80%" y2="100%">
      <stop stop-color="#22D3EE" offset="0%"/>
      <stop stop-color="#A855F7" offset="50%"/>
      <stop stop-color="#F59E0B" offset="100%"/>
    </linearGradient>
  </defs>
  <rect width="128" height="128" rx="28" fill="#020617"/>
  <circle cx="64" cy="64" r="54" fill="url(#g)" opacity="0.22"/>
  <path d="M40 44c0-3.3 2.7-6 6-6h18c3.3 0 6 2.7 6 6v10c0 3.3-2.7 6-6 6H46c-3.3 0-6-2.7-6-6V44Zm0 30c0-3.3 2.7-6 6-6h36c3.3 0 6 2.7 6 6v10c0 3.3-2.7 6-6 6H46c-3.3 0-6-2.7-6-6V74Z" fill="#E5E7EB"/>
  <circle cx="52" cy="49" r="3" fill="#020617"/>
  <circle cx="76" cy="79" r="3" fill="#020617"/>
</svg>
